<svg xmlns="http://www.w3.org/2000/svg" viewBox="0 0 63.74 64.93"><defs><style>.cls-1{isolation:isolate;}.cls-2{fill:#31ade0;}.cls-3,.cls-4,.cls-5{fill:#60bfee;}.cls-3,.cls-5{mix-blend-mode:screen;}.cls-3,.cls-4{opacity:0.76;}.cls-4,.cls-6{mix-blend-mode:multiply;}.cls-5{opacity:0.47;}.cls-6{fill:#1a7aa0;opacity:0.42;}</style></defs><g class="cls-1"><g id="katman_2" data-name="katman 2"><g id="icons_planets"><ellipse class="cls-2" cx="31.87" cy="32.46" rx="31.75" ry="32.58" transform="translate(-9.91 14.47) rotate(-22.23)"/><path class="cls-3" d="M14.6,59.41a32,32,0,0,0,8.82,4.18A39.74,39.74,0,0,0,28,63.07c2.55-.44,14.82-4.12,14.11-7.53a19.14,19.14,0,0,1-3.06.89c5.42-4.13,17.23-6.7,19.43-14-.85.32-2,.26-2.84.49,2.18-2.59,5.32-4.9,8-7.47a31.61,31.61,0,0,0,0-4.46c-6.66,6.71-14.49,12.82-23,16.12,2.5-2.82,15.06-8.3,13.23-13.43-8,3.44-14.16,11.27-21.33,16.16a83.79,83.79,0,0,1-14.38,8.33A28,28,0,0,1,14.6,59.41Z"/><path class="cls-4" d="M.69,25.19A33,33,0,0,0,2.05,43.33c3.09-3.41,5.41-8.67,8.8-11.4,1.67-1.34,15.53-9,14.53-11.4-1.36-3.19-10.87,4.14-13,3A52.07,52.07,0,0,1,30,13.06a69.6,69.6,0,0,1,9.8-2.59c2.45-.44,5.43,0,7.65-1.37a7,7,0,0,0,2.88-2.75,32.08,32.08,0,0,0-5.88-3.47h-.06c-7.45.69-15.32,4.76-21.94,7.88C13.76,14.86,6.13,19.37.69,25.19Z"/><path class="cls-4" d="M15.25,48.17C22,46.84,30,42.75,35.36,38.59c3.27-2.52,9.39-6.49,10.22-10.69-2.61,1.32-8.87,7.2-11.43,5.71,2.26-3.54,7.09-5.72,10.54-8,1.42-.93,8.33-3.57,8-5.95C52.08,16,35.83,25.5,34.46,26.26,25.44,31.26,14.71,36.87,15.25,48.17Z"/><path class="cls-4" d="M10.42,51.3c1-1,5.64-7.6,2.55-8.56C10.15,41.88,3.36,52.3,8.8,53Z"/><path class="cls-4" d="M52.68,26.81c2.41-.19,8.7-2.78,8.85-5.81-3-1.31-7.77,2.44-9.5,4.67Z"/><path class="cls-3" d="M12.55,24.21c2.45.24,4.54-1.24,6.63-2.29.65-.33,5.5-2.8,5.64-1.17,0,.17.26.26.33.08.68-1.8-2-1.12-2.81-.86-3.4,1.11-6.26,3.31-9.8,4.07A.09.09,0,0,0,12.55,24.21Z"/><path class="cls-3" d="M10.85,16.66c-2.46,1.86-5.2,3.53-7.27,5.85,0,0,0,.08.06,0,2.26-2.28,5.3-3.91,7.89-5.79a60.21,60.21,0,0,1,8.37-5.11C26.61,8.26,33.59,6,40.6,3.42a.18.18,0,0,0-.11-.34C33.28,4.43,26.12,7.9,19.61,11.19A57.06,57.06,0,0,0,10.85,16.66Z"/><path class="cls-3" d="M9.38,44.66a17.72,17.72,0,0,0-1.75,2.55C7,48.44,7.14,49.77,6.56,51c0,0,0,0,0,0a3.07,3.07,0,0,0,.51-1.17,9.32,9.32,0,0,1,1.51-3.53c1-1.44,2.41-3.83,4.47-3.28.24.06.3-.29.08-.37C11.52,42.13,10.32,43.46,9.38,44.66Z"/><path class="cls-3" d="M20.91,35.14C17,38.54,15.41,43,15.38,48.22c0,0,0,0,0,0,.44-2.6.72-5.27,1.87-7.66a16.55,16.55,0,0,1,5.15-5.81,110.16,110.16,0,0,1,11.85-7.87c1.14-.67,16.77-10.43,18.27-7.64a.35.35,0,0,0,.63-.3c-1.46-3.65-14.46,4.54-16.2,5.52C31.42,27.59,25.76,30.93,20.91,35.14Z"/><path class="cls-3" d="M52.12,26s.05,0,0,0c-.59-1.2,6.1-4.24,6.89-5,.2-.19-.08-.44-.29-.34C58,21,50.93,25.16,52.12,26Z"/><path class="cls-3" d="M34.26,33.71c4.43,2.24,8-4.21,11.41-5.6.25-.1.22-.56-.09-.52C44,27.79,43,29,41.91,30.08c-2,1.9-4.7,4.08-7.58,3.42C34.21,33.48,34.14,33.66,34.26,33.71Z"/><path class="cls-3" d="M44.46,39.72c-3.17,2.58-6,5.52-9.25,8-3,2.24-6,4.36-9.21,6.36-2.75,1.73-5.67,4.65-9,5,0,0-.05.08,0,.08,2.3.23,4.18-1.15,6-2.36,3.35-2.22,6.81-4.22,10.08-6.57a85.77,85.77,0,0,0,9.28-7.4A76.48,76.48,0,0,1,54,34.23c.46-.3,0-1-.46-.74A100.41,100.41,0,0,0,44.46,39.72Z"/><path class="cls-3" d="M62.84,30.79a53.31,53.31,0,0,1-9.93,9.81c-3.62,2.6-7.57,4.25-11.49,6.3,0,0,0,.06,0,.05,8.89-1.27,16.59-9,22-15.58C63.81,31,63.19,30.37,62.84,30.79Z"/><path class="cls-3" d="M39,56.75c.42.28,1-.06,1.4-.27s1.79-1.11,1.79-.54a0,0,0,0,0,.05,0c.13-.16.19-.18.21-.39a.14.14,0,0,0-.14-.17,3.15,3.15,0,0,0-1.63.47,6.75,6.75,0,0,1-.94.45,3.84,3.84,0,0,0-.76.19C38.92,56.56,39,56.7,39,56.75Z"/><path class="cls-3" d="M55.92,43a.14.14,0,0,0,.09.2c.35.09.73-.24,1-.39s.85-.37,1.18-.17c0,0,0,0,0,0s-.18-.25-.39-.32a1.17,1.17,0,0,0-.67,0C56.8,42.47,56.13,42.68,55.92,43Z"/><path class="cls-3" d="M54,42.33c-2.26,1.61-4.9,2.53-6.71,4.73a.35.35,0,0,0,.18.56,3.28,3.28,0,0,0,2.05-.14c.47-.15.92-.49,1.4-.61a1,1,0,0,1,1.12-.2c.71,0,.7.2,0,.64-.81,1.57-3.9,2.49-5.39,3s-3.31.91-5,1.37C34.58,53.62,29.13,59,22,61c-.05,0,0,.09,0,.08,7.09-1.55,12.45-6.66,19.32-8.62C44,51.72,46.8,51.24,49.29,50c1.38-.68,4-2.05,4.28-3.81a.36.36,0,0,0-.18-.39c-.93-.46-1.83,0-2.69.38q-.69.33-1.38.63c-1.2.26-1.33.1-.37-.49.66-.91,2.13-1.48,3.06-2,4-2.34,6.76-5.84,10.13-9,.19-.17-.09-.51-.3-.35C58.94,37.1,56.93,40.24,54,42.33Z"/><path class="cls-3" d="M46,40.62a.24.24,0,0,0,.22.34c1.57-.13,2.58-1.43,3.48-2.63.17-.22-.16-.53-.33-.3a6.93,6.93,0,0,1-2,2.14c-2,.88.46-1.35.81-1.66.67-.61,3.89-3.18,4.15-2,.49,2.35-5.62,5.27-7.2,6.14s-10.92,5.46-8.71,7c1,.71,3.94-.71,5-1.08.45-.17,3.92-1.55,3.87-.84-.07,1-3,1.21-3.86,1.43-3.54.93-6.81,2.92-9.94,4.77-3.82,2.25-7.49,5.9-12.08,6.31,0,0,0,0,0,0,3.49.11,6.16-2.09,9-3.84,3.87-2.4,8.19-5.15,12.57-6.46.56-.16,7.91-1.88,4.63-3.18C44,46.26,41.42,48,40.07,48.41c-1.78.61-4.84,1.5-1.68-1a39.89,39.89,0,0,1,4.93-3c3-1.76,9.86-4.22,9.59-8.75a.32.32,0,0,0-.4-.29C50.06,35.94,46.84,38.1,46,40.62Z"/><path class="cls-3" d="M24.26,62.1a.06.06,0,0,0,0,.11c2.53.57,5-.24,7.45-.76,1.91-.41,6.13-1.11,7.09-3.31,1.08-2.49-3.61-1.52-4.69-1.16-.91.3-6.05,2-4.37,3.72,1.43,1.46,5.94-1.25,6.76-2.5.1-.15,0-.31-.16-.35a3.46,3.46,0,0,0-3.26.9.2.2,0,0,0,.21.33c.9-.55,3.23-1.07,1.32.05-.74.43-2.13,1.34-3.06,1.27s-1.66-.07-.77-1.35a3.1,3.1,0,0,1,1.08-.61,16.43,16.43,0,0,1,2.72-1.09c.74-.21,2.11-.71,2.85-.35,2.51,1.21-2.77,3.26-4,3.6C30.56,61.35,27.19,62.35,24.26,62.1Z"/><path class="cls-3" d="M32.5,13.4a.28.28,0,0,0,.15.46c1.9.35-.47,1.22-1.08,1.48a33.22,33.22,0,0,1-3.61.84,17.46,17.46,0,0,0-5.23,2.48.23.23,0,0,0,0,.35c1.56,1.29,4-.35,5.46.62C31.6,21.91,18,30.27,16.46,31.39c-2.73,2-14,9.08-11.53,14.07,0,0,0,0,0,0C3,40.56,13.81,33.81,16.68,31.72,20.5,29,27.14,26.16,29.12,21.45c.72-1.71-.16-2.2-1.82-2.3-.77,0-1.58.13-2.34,0-2.69-.38.26-1.48,1.68-2,2.67-.94,5.65-1,8-2.58a.31.31,0,0,0,0-.47c.33.35-1.11-1.23-1.24-.83.14-.94,3-1.21,3.5-1.26a34.47,34.47,0,0,1,5.28,0c3.08.13,6.58,0,7.55-3.48.08-.3-.38-.4-.47-.1C47.22,15.12,36.27,8.58,32.5,13.4Z"/><path class="cls-3" d="M23,3.75c-.77,1.46.16,2.37-1.63,3.73-1.12.86-3,.91-4.29,1.24-2.37.6-4.66,1.22-6,3.39a.31.31,0,0,0,.13.39c1.3.87,2.45-.08,3.74-.51,1.91-.65.39.14-.57.59s-2,.84-3,1.26c-1.81.76-6,2.08-5.54,4.76a.31.31,0,0,0,.38.28c1.08-.31,1.13-.37.17.25a22,22,0,0,1-2,1,6.37,6.37,0,0,0-2.6,2c-.17.24.13.52.33.31C3.9,20.56,6.6,20.2,8.3,18.23A.3.3,0,0,0,8,17.74c-2.81.8-.49-1.31.59-2A29.47,29.47,0,0,1,12.47,14c1.5-.62,3.37-1.16,4.53-2.36a.31.31,0,0,0-.16-.5,3.18,3.18,0,0,0-1.78.13,10.93,10.93,0,0,1-1.79.78l1-1.9c.45-.17.9-.33,1.37-.46,2-.64,5.16-.64,6.68-2.3a5.27,5.27,0,0,0,.83-1.84c.7-1.64-.84-.65,2.13-2.05,1.93-.91,1.83-1,3.47-.51,3.12.87,4.7.29,7.67-1,0,0,0,0,0,0-2,.52-3.89,1.5-6,1.05-1.3-.27-2.5-1-3.84-1A3.69,3.69,0,0,0,23,3.75Z"/><path class="cls-3" d="M56.06,16.15c1.3,2.77-.72,4.31-2.75,5.91-1.26,1-2.84,1.64-4,2.66-1.49,1.26-.36,2.8-1.05,4.64-1.47,3.88-5.21,5-7.78,7.62-.84.87-.7,1-.71,2a.51.51,0,0,0,.25.16c.65.24.67.93,0,2.07-.38.84-2.09,1.77-2.93,2.24-2.47,1.38-5,1.49-7.68,2.09-3.31.74-5.11,3.32-7.47,5.55-1,1-8.37,7.19-9.27,3h0c.48,4.22,7.44-1,8.64-2,2.32-2,4.21-4.91,7.2-5.92,2.25-.75,4.68-.57,6.92-1.45,1.74-.68,5.64-2.44,5.67-4.87,0-1-.77-.65-.74-1.55.05-1.61,2.62-2.47,3.81-3.41,2.23-1.77,4.72-4.7,5.25-7.65,0-.23-.29-.45-.27-.62.16-1.8.59-1.63,1.81-2.39a28.82,28.82,0,0,0,4.49-3.43c.65-.62,2.34-2,2.3-3.09,0-1.34-3.47-2.59-.93-4.29a.2.2,0,0,0-.21-.33C54.94,14.05,55.36,14.67,56.06,16.15Z"/><path class="cls-3" d="M50.78,30.62c-1.09.82-1.85,2.09-2.91,3-.91.75-1.95,1.29-2.87,2-.51.39-1.53,1-1.62,1.72-.13,1.12.43,1.23,1.35,1,1.13-.25,2.76-2,3.61-2.69,1.95-1.57,3.74-3.31,6.08-4.28a.06.06,0,0,0,0-.12c-3,.72-5.38,3-7.78,4.93-.69.55-2.89,2.22-1.74.14.55-1,2.4-1.69,3.27-2.41,1.8-1.52,3-3.39,5.37-4.08a32.14,32.14,0,0,0,4.13-1c1.63-.7,3.41-1.82,3.63-3.75,0,0,0,0,0,0C60.26,30,53.75,28.37,50.78,30.62Z"/><path class="cls-3" d="M42.85,13.64c-1.44,0-2.58-.09-3.32,1.28a.29.29,0,0,0,.26.41,16.44,16.44,0,0,0,2.53-.14c.28,0,1.49-.25,1.66-.09-.37.73-.75,1.45-1.13,2.18l-.78,0c-1.68.42-3.81-.36-5.57-.09-4.73.73,0,2.74-1.46,5.33-.66,1.15-2.94,2.1-4.07,2.71-1.77.93-3.62,1.7-5.43,2.53a27.63,27.63,0,0,0-6.95,4.53,106.26,106.26,0,0,0-7.41,7.74c-.49.53-2.33,3.14-3,3.07l-1-1.4,1-.9a10.55,10.55,0,0,1,2.08-1.21s0,0,0,0c-1.71.7-4.17,2-4.08,4.16a.12.12,0,0,0,.11.11c2.88.24,5.49-3.89,7.18-5.68a66.84,66.84,0,0,1,6.74-6.62,36.67,36.67,0,0,1,7.89-4.38c2.11-1,7.66-2.85,8.26-5.66.26-1.18-.38-.85-.68-1.73-1-2.84,2.36-2.16,3.93-2.08,1.37.08,6,.72,6.17-1.85.09-1.58-1.76-1.35-2.86-1.3a12.62,12.62,0,0,1-2.28.2c-1.92-.3,2-.51,2.53-.54a13.81,13.81,0,0,0,5-.69c1.42-.58,4.51-2.34,4-4.44a.31.31,0,0,0-.36-.19c-.51.09-.33.07-.88.54-.24.21,0,.64.28.44s-.34,1.18-.41,1.28c-.65,1-2.5,1.77-3.64,2.14A12,12,0,0,1,42.85,13.64Z"/><path class="cls-3" d="M34.87,29.55c-3,1.78-6.43,2.77-9.36,4.8-.18.12-.16.47.09.5a9.2,9.2,0,0,0,2.56-.24c1.6-.25,3,.18,1.65,2.08-.64.88-2.19,1.2-3.18,1.52-1.7.56-5.87,1.16-6.4,3.43C19.92,43,20.86,43,22,43c3.56-.16,6.09-2.75,8.9-4.58,0,0,0,0,0,0-1.9,1.16-3.63,2.79-5.73,3.58-.78.29-2.41.92-3.17.68-3.74-1.2,4.46-3.7,5.57-4.1s5.94-3.12,3.28-4.62c-.8-.45-4.09.87-4.42.44.08.1,8.15-3.89,9.28-4.59,3.07-1.89,5.43-4.72,8.55-6.55a28.9,28.9,0,0,1,3.13-1.73c1.47-.62,2.35-.37.86,1a8.08,8.08,0,0,1-3.17,1.17c-.29.07-.14.5.14.45C47.29,23.7,49.3,23,50.31,21a.33.33,0,0,0-.14-.43c-2.55-1.14-6.7,2.18-8.53,3.58C39.35,25.94,37.38,28.08,34.87,29.55Z"/><path class="cls-3" d="M7.54,22.5c.08.6,1,.58,1.16,1,.5,1.38-4.37,3.93-5.18,4.88a.22.22,0,0,0,0,.31c2.18,1.54,4.56.62,6.73-.47,1.63-.83,3.22-1.78,4.81-2.68.6-.34,5.37-3.64,5.55-1.47.09,1.06-7.9,5.17-8.87,5.79a22.61,22.61,0,0,0-5.45,4.28C4.79,36,3.92,38.39,2.65,40.43c0,.06.07.14.11.08C4.19,38.59,5,36.24,6.58,34.42c2-2.35,4.86-3.77,7.38-5.45,2-1.33,5.9-2.64,7.08-4.76.52-1,.35-1.42-.68-1.55-.79-.11-1.83.62-2.52.95-2,1-3.95,2.19-5.91,3.28-1.45.8-3.47,2.32-5.22,2.19-1.19-.09-1.77-1-1-2,.25-.33,1-.55,1.33-.77.65-.4,1.78-.87,2.13-1.64.66-1.46-1.3-1.68-.61-3,.38-.72,2.51-1.5,3.23-1.94,1.18-.72,2.35-1.47,3.52-2.2,2.49-1.54,5-2.91,7.58-4.35,4.9-2.77,9.3-5.28,14.79-6.79a12.21,12.21,0,0,1,6.4-.4c2.43.57.3,2-1,2.18a15.39,15.39,0,0,1-3.67-.36c-4.27-.47-8.3,1.32-11.77,3.64a.16.16,0,0,0,.17.26C32.13,9.16,36.06,8,41.1,8.53c1.27.14,4.36.78,5.2-.71,2-3.57-7.68-2.3-8.82-2-9.07,2.55-17,7.93-24.94,12.9C11.64,19.3,7.31,20.89,7.54,22.5Z"/><path class="cls-3" d="M7.9,49.22a.19.19,0,0,0,.19.23c1.7.06,3.45-3.29,3.66-4.73,0-.13-.09-.25-.21-.2a3.12,3.12,0,0,0-.44.17c.47-.53,1.22-1.23,1.6-.47s-.47,1.81-.76,2.33-2.79,4.62-3.87,4.07c-.05,0-.07.05,0,.06,1.41.17,2.77-1.94,3.46-2.89s2.24-2.8,1.42-3.95C11.56,42,8.14,48.14,7.9,49.22ZM11.35,45a2.6,2.6,0,0,1-.35.82,9.8,9.8,0,0,1-.91,1.53,7.31,7.31,0,0,1-.83,1,2.64,2.64,0,0,1-.74.59c-.26.13-.16.26-.2.13-.11-.36.76-1.55.92-1.82a16.75,16.75,0,0,1,1.15-1.73.11.11,0,0,0,.11,0l.9-.7Z"/><path class="cls-3" d="M62.83,36.92c-1.08,1.41-2.6,2.3-3.71,3.69a.26.26,0,0,0,.13.41c.57.14.89-.12,1.38,0,.78.14.46-1.13.63.39.11.93-.58,1.66-1.09,2.34a51.27,51.27,0,0,0-3.26,4,.29.29,0,0,0,.13.39c1.25.7-3.79,4-4.38,4.28-2.69,1.45-5.75,1.81-8.32,3.53a.25.25,0,0,0,0,.39c.69.81.87.41,1.61.76,1.53.72,1.39.86-.16,2.05A22.28,22.28,0,0,1,42.56,61c-1.18.62-2.35,1.27-3.54,1.87a15.33,15.33,0,0,1-2.46,1.06,6.81,6.81,0,0,1-1.5.34q-.93-2.54,2-1.75c.1,0,.13-.12,0-.14A4.25,4.25,0,0,0,33,63.76a.14.14,0,0,0,0,.2c1.79,1.31,4.16.16,5.88-.66,3.3-1.57,7.08-3.1,9.31-6.11a.24.24,0,0,0-.07-.36c-.78-.5-2.68.06-2.66-1.08,0-.61,6.25-2.25,7-2.64,1.5-.76,4.43-2.2,5.15-3.85a8.29,8.29,0,0,0,.24-1.16c0-.13-.31-.3-.3-.36.13-.63.94-1.28,1.33-1.74,1.32-1.54,3.62-3.58,3-5.9A.26.26,0,0,0,61.6,40a1,1,0,0,1-1,.23c-1.09,0-.71-.49,1.12-1.37a7.73,7.73,0,0,0,1.44-1.63C63.25,37,63,36.72,62.83,36.92Z"/><path class="cls-4" d="M40.37,55.51h0C40.15,55.44,40.06,55.41,40.37,55.51Z"/><path class="cls-4" d="M40.36,55.51c.28.09.78.24.72.17.69-.27.74-.06.16.63a1.59,1.59,0,0,1-.86,1.13c-1.52,1.57-3.93,2.41-5.87,3.21a29.39,29.39,0,0,1-10.62,2.68s-.05.07,0,.08c2.49.59,5.1-.15,7.46-.89a32.76,32.76,0,0,0,8.57-3.69c.77-.52,3.65-2.19,3-3.65-.47-1.11-1.63-.35-2.54-.36C40,54.81,40,55.38,40.36,55.51Z"/><path class="cls-4" d="M57.37,41.77a.45.45,0,0,0,.19.59c3.28,1.43-5.17,7-6.46,7.6-2.61,1.25-5.46,2-7.65,4,0,0,0,.07,0,.06C48.35,51.37,56,50,59,44.63a2.66,2.66,0,0,0,.23-2.46c-.13-.56-.49.19-.43-.66,0-.56.95-1.24,1.29-1.56,1-.91,2-1.69,3-2.58.29-.27-.13-.72-.45-.53A16.8,16.8,0,0,0,57.37,41.77Z"/><path class="cls-4" d="M53.68,33.66c3.82,3.69-10.2,11.52-12.63,13.24a.07.07,0,0,0,.07.11,61.81,61.81,0,0,0,10.65-7c1.17-1,2.63-2.32,3.11-3.9a10.08,10.08,0,0,0-.27-2.8c.25-.22-.11-.6-.38-.45l-.51.29A.36.36,0,0,0,53.68,33.66Z"/><path class="cls-4" d="M45.4,28.14c.06,2.84-2.35,4.78-4.2,6.5a47,47,0,0,1-7.87,5.9C27.7,43.91,21.6,45.46,15.66,48c0,0,0,0,0,0,7.14-.81,14.65-4.46,20.54-8.45,3.38-2.29,10.23-6.65,9.92-11.5A.37.37,0,0,0,45.4,28.14Z"/><path class="cls-4" d="M24.78,19.91c1.79,2.24-10.47,8.61-11.26,9.08A20.52,20.52,0,0,0,7,35.2c-1.74,2.46-2.81,5.63-5,7.64-.06,0,0,.13.08.1a6.91,6.91,0,0,0,2.46-2.6,56.54,56.54,0,0,1,4.15-6c3.35-4.06,8-5.45,12.13-8.47,1.08-.8,7-5,4.49-6.46C25,19.21,24.55,19.61,24.78,19.91Z"/><path class="cls-4" d="M12.46,23.38a0,0,0,0,0,0,0c5.59-5.35,12.08-8.21,19.35-10.51a68.77,68.77,0,0,1,11.66-2.32,10.94,10.94,0,0,0,6.4-3.21c.37-.35-.23-.9-.6-.55C46,10,42.24,9.65,38.05,10.44a78.88,78.88,0,0,0-11.16,3.29C21.52,15.59,15.68,18.45,12.46,23.38Z"/><path class="cls-4" d="M27.47,49.57a5.05,5.05,0,0,0-4.14,2.3c-1,1.4-1.69,2.92-3,4a6.93,6.93,0,0,1-7.7,1s0,0,0,0a6.85,6.85,0,0,0,8-.73,11,11,0,0,0,2.17-2.67C24,51.54,25,50.22,27.49,50a20.35,20.35,0,0,0,2.34-.22c2.82-.66,2.8-3.33,5.23-4.09,3.16-1,5.52-1.78,7.2-5a.11.11,0,0,0-.2-.1,9.83,9.83,0,0,1-5.52,4.5c-.88.23-2.16,0-2.95.52-.44.29-.38.63-.61.84l-.38,1a3.82,3.82,0,0,1-2.81,1.85A13,13,0,0,1,27.47,49.57Z"/><path class="cls-4" d="M49.45,13.63c.75,1.18-.31,2.47-1.17,3a9,9,0,0,1-1.84.84c-1,.32-2.18.22-3.17.63-1.21.5-.75.57-1.08,1.33C41.44,21.11,42,21,40.5,21.66c-.6.27-1.23.46-1.84.71a24.81,24.81,0,0,0-2.44,1.17c-3.22,1.69-6.36,3-9.27,5.2-3.78,2.89-9.62,6.05-11.35,10.84-1,2.71-.1,5.9-1.35,8.51-.88,1.83-3.05,2.89-3.3,5a.18.18,0,0,0,.18.21,3.29,3.29,0,0,0,2.27-.81s0-.13-.06-.1c-1.46-.24-1.77-.68-.92-1.33l.51-.54a12.24,12.24,0,0,0,1.4-1.64,8.71,8.71,0,0,0,1-3.51c.25-2.17,0-4.38,1-6.38A15.38,15.38,0,0,1,21.08,34c3.66-2.84,7.29-6,11.49-8,1.66-.79,3.29-1.67,5-2.45,1.36-.63,3-.93,4.26-1.77A4,4,0,0,0,43,20.35c.2-.28-.13-.43,0-.64a3.91,3.91,0,0,1,2.37-1.39c1.51-.45,4.08-.94,4.88-2.57.26-.55,0-1,.19-1.51s-.36-.24,0-.67,1.46-.29,1.82-.38c1.28-.32,2.91-.68,2.56-2.32-.07-.32-.61-.23-.55.09.28,1.66-3.67,1.88-4.63,2.21A.31.31,0,0,0,49.45,13.63Z"/><path class="cls-5" d="M15.91,4.08C.68,12.77-4.52,32.53,4.29,48.21c.37.66.77,1.29,1.18,1.92a14.45,14.45,0,0,0,3.15,1.48,25.9,25.9,0,0,0,23.7-4.47c6-5,10.49-14.32,11.3-22.13A30.43,30.43,0,0,0,40.43,7.59,18.09,18.09,0,0,0,32.8,0,30.9,30.9,0,0,0,15.91,4.08Z"/><path class="cls-6" d="M59.45,16.72A32.71,32.71,0,0,0,44.38,2.85l.15.22C51.46,14.51,51.36,30,42.91,40.26A51.38,51.38,0,0,1,28,52.43a30.88,30.88,0,0,1-17.81,3.44,31.61,31.61,0,0,0,37.62,5C63.06,52.15,68.27,32.4,59.45,16.72Z"/><path class="cls-6" d="M59.45,16.72a32.74,32.74,0,0,0-4.27-5.95c.09.52.19,1,.27,1.38C57.7,22.92,58,33.26,51.77,42.47c-1.77,2.63-3.16,5.42-5.42,7.69A36.77,36.77,0,0,1,38.51,56a51.5,51.5,0,0,1-7.82,3.37,32.42,32.42,0,0,1-12.16,2.35,32,32,0,0,0,7.63,2.6,48.14,48.14,0,0,0,8.77-1.16A20,20,0,0,0,43,59.21c3.28-2.54,6.77-5,9.51-8.13a87.39,87.39,0,0,0,6-7.4c2.89-4.2,3.71-8.18,4-13.32.1-1.9.17-3.78.15-5.65A33.45,33.45,0,0,0,59.45,16.72Z"/><path class="cls-5" d="M17.06,8.45c-3.46-1.22-8.34,5-9.66,7.46C4.05,22.19,2.81,30.78,7.64,37c2.24,2.88,6.25,2.87,9.46,2.07a18.75,18.75,0,0,0,11.82-8.57c2.7-4.62,4.2-9.27,2.93-14.71-.58-2.44-1.37-4.77-3.62-6.11C25.51,8,21.47,7.8,17.06,8.45Z"/><path class="cls-5" d="M10.54,17c-2,2.06-4,8.52.68,8.66C17.25,25.81,15.69,14.8,10.54,17Z"/></g></g></g></svg>